<svg id="Camada_1" data-name="Camada 1" xmlns="http://www.w3.org/2000/svg" viewBox="0 0 119.8821 50"><defs><style>.cls-1{fill:#ffa800;}.cls-2{fill:#ff6e00;}.cls-3{fill:#ea0000;}.cls-4{fill:#363333;}</style></defs><title>[B&amp;amp;V] Vetor - </title><g id="g12"><path id="path16" class="cls-1" d="M10.5752,13.0078.5046,26.2046q.5436,0,1.0225.0115H5.1746c1.3049,0,1.615.0762,2.6545-.8955a24.5939,24.5939,0,0,0,2.4191-2.8787l7.1999-9.4341L10.1121,3.508A27.24952,27.24952,0,0,0,8.1292,1.1433,2.69721,2.69721,0,0,0,5.5855,0H.5299Z"/><path id="path18" class="cls-2" d="M23.3223.0838l-.1052.018-.1207.0214-.1366.0249-.1521.0314-.167.0389-.1854.0509-.2005.0658L22.037.4149l-.2339.0937-.2513.1072-.2647.1186-.2847.1347-.1441.0717-.1441.0798-.1421.0818-.1401.0897-.1386.0938-.1361.0972-.1341.1052-.1346.1092-.1326.1146-.1301.1187-.1287.1246-.1266.1307-.1267.1346-.1226.1401-.1227.1461-.1206.15-.3156.4049,3.307,4.3331.0115.0159,3.7024-4.7539.0095-.0099.002-.004.0099-.0095.002-.004.0095-.0099.002-.0035v-.002l.008-.008.002-.004.0115-.0115.0019-.0039.01-.01.0015-.0035.012-.012V2.5573l.0094-.0095.002-.004.01-.01.002-.0035L25.7,2.5184l.002-.004.0099-.0095v-.002l.002-.004.0095-.0094.002-.004.0115-.012.002-.0035.0099-.0099.002-.004.0115-.0115v-.004l.01-.0099.002-.0035.0114-.012.002-.004.0115-.0115.002-.0039.008-.0075v-.002l.002-.004.0114-.012.002-.0035.01-.0099.002-.004.0115-.0115.002-.004.0059-.0059v-.002l.002-.002.002-.0035.0115-.012.002-.004.0115-.0114.002-.004.0099-.0095.002-.004.0055-.006v-.002l.004-.004.002-.0034.01-.01.002-.004.0134-.0135.002-.0039.0115-.0115.002-.004.0139-.014.0015-.0034.004-.004v-.002l.01-.01.002-.0035.0174-.0179.002-.0035.0175-.018.002-.0035.0234-.0234.002-.004h.0015l.002-.004.0294-.0289.002-.004h.002l.002-.0039.0952-.0953.004-.002v-.002l.002-.002.004-.002.0563-.0563h.002l.004-.004.0035-.002.0409-.0409h.002l.004-.004.004-.0019.0349-.0349.0039-.002v-.002l.004-.002h.002L26.378,1.79l.0035-.002.0255-.0249h.002l.0039-.002.0235-.0234.004-.002v-.002l.0035-.002.0159-.0155h.002l.002-.002.0035-.002.0214-.0214.004-.002.0195-.0194h.0039l.0215-.0215.004-.002.0114-.0114h.002v-.002h.002l.004-.002.0195-.0195.0039-.002.0055-.006h.002l.008-.0074.004-.002.0135-.014h.002l.0039-.0015.0175-.0179.004-.002h.002l.0154-.0155h.004l.0135-.0135h.004v-.002l.0039-.0019.0115-.0115h.004l.0115-.012h.004l.0099-.0095h.002l.002-.0019.0035-.002.008-.008h.002l.004-.004.004-.0015.0054-.006h.002l.002-.002.004-.002.006-.006h.0015l.004-.004.004-.0014.002-.002h.002l.0094-.01h.004l.008-.008h.002l.004-.0035.0035-.002.002-.002h.002l.0059-.006.004-.002.002-.0019h.002l.0055-.0055h.002l.004-.002.006-.006h.002l.002-.002.0034-.002.002-.002h.002l.008-.0075h.004l.0055-.006h.002l.004-.0039.004-.002h.002l.0074-.0075h.004l.006-.006h.002l.004-.004.0035-.002.002-.002h.002l.0059-.0055h.004l.006-.006h.0015V1.3423h.002l.002-.002.004-.002.002-.002h.002l.006-.006h.002l.0035-.0015.0059-.006h.002l.004-.004h.002l.002-.002h.0015l.006-.006h.002l.004-.002.004-.0034h.002l.0034-.004.004-.002.002-.002h.002l.006-.006h.002l.0035-.002.004-.0035h.002l.004-.004.0079-.004.0055-.0059h.002l.004-.002.004-.0035h.002l.0075-.008h.0039l.004-.004.008-.006.004-.002h.0015l.006-.0055h.002l.002-.002.004-.002.0039-.0039h.0015l.006-.006h.004l.006-.0055h.002l.002-.002.0035-.002.004-.004h.002l.0059-.006h.004l.0055-.0054h.002l.004-.004.004-.002.002-.002h.002l.0055-.006h.0039l.006-.0055h.002l.004-.004.0035-.002h.002l.008-.008h.004l.0059-.0059h.0015l.002-.0015.004-.002.002-.002h.002l.006-.006h.0035l.008-.008h.002l.002-.0015.0039-.002.002-.002h.002l.0055-.006h.002l.004-.002.002-.002h.002l.004-.0039.0035-.002.002-.0015h.002l.0039-.004h.002l.002-.002.004-.002.002-.002h.0015l.006-.006h.002l.004-.002.002-.0015h.002l.0055-.006h.0039l.004-.004h.002l.006-.0059h.004l.0035-.004h.002l.004-.0035.004-.002h.0019l.004-.004h.0015l.004-.004.004-.002h.002l.004-.004h.002l.004-.0035h.0035l.0039-.0039h.002l.004-.004h.004l.0035-.004h.002l.006-.006h.004l.002-.002h.002l.0039-.0035h.0015l.004-.002.002-.002h.002l.004-.004h.002l.002-.002.004-.0019h.0015l.004-.004h.002l.002-.0015.0039-.002h.002l.002-.002h.002l.0035-.004h.002l.004-.002.002-.002h.002l.004-.004h.002l.002-.002.0035-.002h.002l.002-.0015h.002l.0039-.004h.004l.002-.002h.002l.0035-.0039h.002l.002-.002.004-.002h.002l.002-.002h.002l.0035-.0035h.0039l.002-.002h.002l.004-.004h.002l.006-.002.0035-.004h.002l.002-.002h.002l.004-.002h.002l.004-.004h.0019l.0035-.0035h.004l.002-.002h.002l.002-.0019h.002l.002-.002.004-.002h.0015l.002-.002h.002l.002-.002h.002l.002-.002.004-.002h.0019l.002-.002h.0015l.002-.0015h.002l.004-.002.002-.002h.002l.002-.002h.002l.004-.004H27.63l.002-.002h.002l.004-.004h.002l.002-.002h.0039l.0015-.002h.002l.004-.0035h.002l.004-.002h.002l.004-.0039h.002l.0015-.002h.002L27.6749.9h.002l.0039-.004h.002l.002-.002h.004l.0015-.0015h.002l.004-.004h.002l.002-.002h.004l.002-.002h.002l.002-.002h.0015l.002-.002.0039-.002h.002l.002-.002h.002l.002-.002h.002l.002-.002L27.7412.867l.006-.0019.0075-.004.0059-.004.0115-.0055.006-.002.008-.004.0059-.004.0075-.004.006-.002.008-.0039L27.819.8302l.004-.002.0039-.004.004-.002.0055-.002.008-.004.006-.002.0114-.0055.006-.002.004-.002.004-.004.0055-.002.0119-.0059.0055-.002.012-.0055.006-.002.0114-.006.006-.002.0115-.006.006-.0015.0114-.006.006-.0039h.004l.0115-.006.006-.002.0114-.0055.006-.002.0155-.008.006-.002.0154-.0075.006-.002L28.0702.713l.006-.002.0195-.0095h.0059l.0195-.01.0055-.002L28.15.6781l.006-.002.0234-.012.006-.0015.0155-.008h.0039l.0115-.0059.006-.002.0389-.0195.006-.002.0349-.0174h.004l.0114-.0055.006-.002.0234-.012h.004l.0309-.0154h.004l.0274-.0135h.0035l.02-.01h.0035l.0194-.0099h.004L28.4791.532h.0039l.012-.006h.004L28.5105.52h.0039l.0155-.0075h.004l.0075-.0039.002-.002h.004l.0119-.006h.0035V.4986l.008-.0015.004-.002.0079-.002.0115-.006h.002l.0155-.008h.004l.0174-.0074.008-.004.0114-.004.004-.002h.004l.004-.002L28.67.4562h.004l.0119-.006h.0035l.008-.004.002-.002.004-.002h.004l.0114-.0059h.002l.0115-.0055h.004l.004-.002.002-.002.0075-.004h.0039l.008-.004h.002l.0115-.0055h.004l.002-.002.0079-.004h.0015l.008-.0039h.004l.004-.002.002-.002h.0035l.008-.004h.002l.0114-.0055h.004l.002-.002.004-.002h.004l.004-.002.0015-.002h.0039l.008-.004h.002l.004-.002h.0035l.002-.002.004-.0015h.004l.0039-.002.002-.002h.0035l.004-.002h.004l.002-.002.004-.0019h.004l.002-.002h.0035l.0079-.004h.002l.008-.0035h.0015l.004-.002h.004l.004-.002h.002l.0074-.004h.002l.004-.002h.004l.002-.002h.004l.0035-.002.002-.002h.004l.004-.002h.0019l.004-.002h.004L28.999.3315l.004-.002h.004l.004-.002h.002l.0075-.004h.002l.0039-.0019h.004l.002-.002h.004l.0035-.002.002-.002h.004l.004-.002h.002l.0039-.002h.002l.0035-.0015h.004l.002-.002.004-.002h.004l.002-.002h.004l.0015-.002.004-.002h.0039l.002-.002h.004l.004-.002h.0015l.01-.004.004-.002h.002l.0039-.0015h.0015l.004-.002.002-.002h.004l.002-.002h.004l.0035-.002h.002l.004-.002h.002l.0039-.002h.002l.0075-.0039h.006l.002-.002.004-.0015h.002l.004-.002h.002l.0035-.002h.0039l.002-.002h.006l.004-.002h.002l.0035-.002h.002l.006-.002.004-.002h.0019l.0035-.002h.002l.004-.002h.002l.004-.002h.006l.002-.0015h.0035l.002-.002h.0039l.002-.002h.004l.002-.002h.0055l.004-.002h.002l.004-.002h.006l.002-.002h.0034l.002-.002h.006l.004-.002h.002l.004-.002h.0055l.002-.0015h.006l.002-.002h.0039l.002-.002h.0055L29.34.2223h.006l.002-.002h.002l.0035-.002h.006l.0019-.002h.006l.002-.002h.0035l.002-.002h.006l.002-.002h.002l.004-.002h.0035l.0039-.0015h.008l.002-.002h.004l.002-.002h.0055l.002-.002h.004l.002-.002h.0059l.002-.002h.0055l.002-.002h.006l.002-.002h.006l.0015-.002h.002l.004-.002h.0079l.002-.002h.0055l.002-.0015h.006l.002-.002h.006l.002-.002h.0055l.002-.002h.0079l.004-.002h.0075l.002-.002h.006l.002-.002h.0055l.0977-.0194.0174-.004.0195-.004.0174-.0035.0175-.002.0528-.0119L29.7937.123l.0175-.002.0159-.004.0778-.0135.0135-.0039.0154-.002.0275-.004.0134-.004.0409-.006.012-.0015.0134-.004.012-.002Z"/><path id="path20" class="cls-2" d="M23.252,25.9982l-.1052-.0175-.1207-.0234-.1361-.0254-.1521-.0289-.1695-.0394-.1849-.0524-.2005-.0663-.2163-.0798-.2339-.0932-.2513-.1052-.2667-.1211-.2822-.1342-.1461-.0722-.1421-.0778-.1426-.0838-.1401-.0877-.1381-.0933-.1366-.0992-.1361-.1032-.1326-.1112-.1321-.1131-.1307-.1207-.1286-.1246-.1286-.1307-.1247-.1341-.1246-.1401-.1226-.1461-.1207-.15-.2982-.3839,3.3191-4.3486,3.6864,4.7325.006.0059.002.0035.002.002v.002l.0055.006.002.004.0119.0115.002.0039.0075.008.002.0035.01.01.002.004.004.004v.0019l.0054.0055.002.004.012.012.002.0035.0095.0099.002.004.0094.0095.002.004.002.002v.002l.008.0075.002.0039.0095.01.002.004.0119.0115.002.0039.0095.0095.002.004.004.004v.002l.006.006.0015.0035.0119.0119.002.004.0095.0095.002.004.0119.0119.002.0035v.002l.0075.008.002.004.012.0114.0015.004.01.0095.0019.004.0115.012v.0034l.012.012.002.004.0094.0095.002.0039.012.012.0015.0035.008.008v.002l.002.004.0114.0114.002.004.012.0115.002.004.0095.0099.002.004.0119.0115.0015.004.004.004v.0015l.008.0079.002.004.0115.0115.002.004.0134.0139.002.0035.016.016.002.0035h.0015l.002.004.0179.0174.0015.004.004.004v.002l.006.006.004.0019v.0015l.0074.008.002.004.0275.0274.002.0035h.002l.0019.004.0389.0389.002.004h.002l.002.002.0015.004.004.002v.002l.004.0034.004.002.002.002v.002l.002.002.004.002.0523.0524h.002l.0329.0334.004.002.0334.0329h.0015l.012.012.004.002v.0015l.0039.0019.029.0295h.002l.0099.0094.0035.002.0314.0314.004.002.002.002h.0015l.0234.0235.004.0015.0254.0254.008.004.0215.0214.0035.002.0214.0215h.004l.0234.0234.004.002.0155.0154h.002l.0039.002.0195.0195.004.002.0114.0114h.002l.004.004.004.002.0155.0155.004.002.0034.004h.002l.01.0094.004.002.0135.014h.002l.0019.002.004.002.0135.0135.008.0039.0134.0135h.002l.002.002.004.002.0095.0095h.002l.002.002.004.002.0094.0099h.002l.002.002.004.002.0095.0095h.002l.002.002.004.002.0079.0075h.002l.002.002.0035.002.004.0039h.002l.006.006.004.002.002.002h.0015l.0079.0075.004.002h.002l.0075.008.008.004.008.0074h.002l.0015.002.0039.002.004.004h.002l.006.006.004.002h.0015l.008.0075h.004l.0059.006h.0015l.004.0039.004.002.002.0015h.002l.008.008h.0035l.006.006h.002l.0019.002.004.002.002.002h.002l.0075.0075h.004l.006.0059h.002l.002.002.0035.002.0039.0035h.002l.006.006h.004l.0055.006h.002l.004.004.004.002.002.002h.002l.0054.0055h.002l.004.002.006.0059h.002l.002.002.0035.002.002.002h.002l.006.0055h.0039l.0075.008h.002l.002.002.004.002.002.002h.002l.006.0055h.0015l.004.002.0059.0059h.002l.002.002.004.002.002.002h.0015l.006.0055h.002l.004.002.004.004h.002l.0054.006.004.002h.002l.006.006h.002l.002.0014.0095.006.006.006.0054.002.004.004h.002l.004.0035.004.002h.002l.0055.006h.002l.002.002.004.002.0039.0039h.002l.006.0055h.0035l.006.006h.002l.002.002.004.002.004.004h.0015l.0059.0055h.004l.006.006h.002l.0015.0019.004.002.004.004h.002l.004.004.0039.002h.002l.0055.0055h.002l.002.002.004.002.004.004h.002l.0055.006h.004l.0059.0054h.002l.002.002.0035.002.002.002h.002l.006.006h.004l.0075.0075h.002l.0039.002.002.002h.002l.006.006h.002l.0035.002.004.004h.002l.004.0034h.004l.0054.006h.002l.004.004.004.002h.002l.004.004h.002l.002.002.0035.0015.002.002h.002l.0039.004h.002l.002.002.004.002.0015.002h.002l.004.0039h.002l.002.002.004.002.002.0015h.002l.0035.004h.002l.0039.002.002.002h.002l.004.004h.002l.002.002.0035.002h.002l.004.004h.002l.002.0015.004.002.002.002h.002l.002.002h.0015l.0039.0039.004.002h.002l.002.002h.002l.004.004h.0035l.004.0035h.002l.004.004h.002l.0039.002.002.002h.0015l.002.002h.002l.004.004h.004l.004.004h.002l.0035.0035h.004l.0039.0039h.002l.002.002h.002l.002.002.0035.002h.002l.002.002h.002l.004.004h.004l.004.0035h.002l.0015.002h.002l.0019.002h.002l.002.002h.002l.004.004h.002l.002.002h.0035l.002.002h.002l.004.0039h.002l.002.0015.004.002h.002l.0015.002h.0019l.004.004h.004l.002.002h.002l.002.002h.002l.0035.004h.004l.002.002h.002l.002.002h.002l.002.0015.0039.002h.0015l.002.002h.002l.004.004h.002l.004.002h.002l.002.002h.002l.0035.004h.002l.004.0019h.002l.0039.0035h.002l.002.002h.0035l.002.002h.002l.004.004h.002l.002.002h.004l.002.002h.002l.0035.004h.002l.0039.002h.002l.004.0035h.002l.002.002h.0015l.004.002h.002l.004.004h.002l.002.002h.004l.0035.0039h.002l.0019.002h.002l.002.002h.004l.002.0015h.002l.0035.004h.002l.002.002h.004l.002.002h.002l.002.002.004.002.0054.002.004.002.004.0035.006.002.0075.004.006.002.0079.0039.0055.004.008.004.006.0015.0075.004.0059.002.004.004.008.004.0055.002.008.004.006.0014.0114.006.006.004.0075.004.006.002.0119.0055.0055.002.012.006.0055.002.0079.0039.004.004h.006l.0035.0035.008.004.006.002.0114.006.006.002.0115.0055.006.002.0154.0079.006.002.0115.006.006.0015.0079.004h.004l.0075.004.006.002.0154.008.006.002.0195.0094.006.002.0154.008.006.002.0194.0095h.004l.0055.002.0234.0114.006.002.0274.014.0055.002.0314.0154h.0055l.0429.0215.006.002.0274.0134h.004l.0429.0215h.0055l.0234.0115h.004l.0234.0119h.004l.0194.0095h.004l.0195.01h.0035l.0159.0079h.0035l.008.0035.002.002.004.002h.0039l.0115.006h.004l.0115.006h.0039l.0155.0075h.004l.008.0039.006.002.0154.008h.004l.0115.0055h.0039l.0115.006.0175.006.0079.004.01.0034.0115.006.008.002.0034.002.008.002.002.002.008.004h.0035l.012.0055h.0019l.0115.006h.004l.004.002.002.002.0075.0039h.0039l.004.002.002.0015.004.002h.004l.0075.004h.004l.002.002.0079.004h.0035l.004.002.002.002h.004l.0075.0035.002.002h.004l.0079.004h.002l.0115.006h.002l.008.0039h.0035l.002.002.004.002h.0039l.008.0035h.002l.0035.002h.004l.008.004h.002l.0074.004h.004l.002.002h.004l.004.002.002.002h.0035l.008.0035h.002l.0039.002h.004l.0015.002.004.002h.004l.004.0019h.002l.0075.004h.002l.0039.002h.004l.002.002h.004l.0035.002.002.0015h.004l.004.002h.004l.002.002h.0039l.0035.002.002.002h.004l.004.002h.002l.0075.004h.002l.004.002h.0039l.002.002h.004l.004.002.0015.0015h.004l.004.002h.002l.008.004h.0015l.0039.002h.004l.002.0019h.004l.002.002.004.002h.0035l.002.002h.004l.0039.002h.002l.0075.0035h.002l.004.002h.002l.004.002.0095.002.002.002.0039.002h.004l.002.002h.004l.002.002h.0035l.002.002.004.002h.004l.002.0015h.0039l.002.002h.0035l.004.002h.002l.004.002.002.002h.004l.0015.002h.004l.002.002h.0039l.004.002h.002l.004.002h.0015l.004.0019h.002l.004.002h.002l.004.0015h.002l.0054.002.004.002h.006l.004.002h.002l.0035.002h.002l.002.002h.004l.002.002h.0039l.002.002h.0055l.004.002h.002l.004.002h.006l.002.0015h.0035l.002.002h.0039l.002.002h.006l.0035.002h.006l.002.002h.004l.002.002h.006l.0034.002h.002l.004.002h.006l.002.002h.0055l.002.002h.004l.002.002h.0059l.002.0015h.0035l.002.002h.006l.004.002h.002l.002.002h.0055l.004.002h.0039l.004.0019h.002l.004.002h.0035l.004.002h.002l.002.002h.006l.002.002h.0054l.004.002h.002l.002.0015h.006l.002.002h.0055l.002.002h.004l.002.002h.0059l.002.002h.0035l.002.002h.006l.002.002h.006l.002.002h.0015l.004.002h.004l.0039.002h.004l.002.002h.0055l.002.0015h.008l.004.002h.004l.0034.002h.006l.002.002h.002l.1167.0234.0354.008.0194.002.0349.0075.0155.002.0349.0079.0159.002.0155.0035.0778.014.0154.002.014.0035.0134.002.0155.002.014.0039.0134.002.012.002.0269.004.0235.004Z"/><path id="path22" class="cls-3" d="M30.4524,18.7414l-4.3531-5.7041,4.4364-5.7436c1.383-1.7894,1.3187-2.0586,3.4202-2.0586h4.1227l-6.0258,7.8022,6.0592,7.9402H34.2715c-2.4056,0-2.2381-.1655-3.8191-2.2361Z"/><path id="path24" class="cls-4" d="M9.9057,45.285,6.2656,48.8722c-.52.5356-.8376.5785-1.9709.5785H0l7.1341-6.8864L1.714,37.2764c-.6351-.514-.8221-.8236.4049-.8236H6.3393L9.9695,40.034l2.9351-2.9465a2.28608,2.28608,0,0,1,1.8816-.6347h4.185L12.743,42.7589l6.1779,6.0002c.5.4736.2044.6935-.4757.6916H14.163ZM26.409,42.819V40.237a.81344.81344,0,0,1,.2433-.5983.8519.8519,0,0,1,.6272-.2433h7.0987a1.8461,1.8461,0,0,1,1.3032.5005,1.63418,1.63418,0,0,1,0,2.4267,1.84567,1.84567,0,0,1-1.3032.5005c-2.6599,0-5.3109-.0041-7.9692-.0041Zm0,2.986c3.0069,0,6.0003-.008,9.0112-.008a5.04835,5.04835,0,0,0,1.9494-.372,5.2102,5.2102,0,0,0,1.5835-1.001,4.77512,4.77512,0,0,0,1.0789-1.4878,4.25708,4.25708,0,0,0,.3994-1.8267,4.15594,4.15594,0,0,0-.3994-1.8113,4.83112,4.83112,0,0,0-1.0789-1.4703,5.21779,5.21779,0,0,0-1.5835-1.0032,5.08559,5.08559,0,0,0-1.9494-.3719H22.1282V49.4507H26.409ZM86.02,42.819V40.237a.78536.78536,0,0,1,.2607-.5983.90751.90751,0,0,1,.6427-.2433h6.7173a1.837,1.837,0,0,1,1.3222.5005,1.67117,1.67117,0,0,1,0,2.4267,1.83657,1.83657,0,0,1-1.3222.5005c-2.5438,0-5.0775-.0041-7.6207-.0041Zm0,2.986c1.9319,0,3.85-.008,5.7765-.008l4.522,3.6537h5.3597l-5.0815-4.0081a5.009,5.009,0,0,0,2.2456-1.6827,4.24954,4.24954,0,0,0,.8865-2.6504,4.16161,4.16161,0,0,0-.3994-1.8113,4.8394,4.8394,0,0,0-1.0789-1.4703,5.24745,5.24745,0,0,0-3.5658-1.3751H81.7392V49.4507H86.02ZM48.4026,44.3422a.91364.91364,0,0,0-.6447.2433.78619.78619,0,0,0-.2608.5979v1.3381c.1013-.0095.2104-.0134.3271-.0134H60.0238l-1.4857,2.3293a1.64589,1.64589,0,0,1-.5435.516,2.1284,2.1284,0,0,1-.7832.0973H43.2184V36.4528H59.9206l-1.2873,2.2959a1.68934,1.68934,0,0,1-.4537.518,1.63231,1.63231,0,0,1-.6955.0978H48.4026a.91164.91164,0,0,0-.6447.2413.786.786,0,0,0-.2608.5978v1.3575h9.9521l-1.217,2.1678a1.67471,1.67471,0,0,1-.4542.5161,1.60714,1.60714,0,0,1-.6951.0972Zm24.1439,5.1085H68.2657V39.3645H60.9995l1.2873-2.2965a1.32494,1.32494,0,0,1,.4343-.518,1.66558,1.66558,0,0,1,.6796-.0972H79.889l-1.2873,2.2959a1.69067,1.69067,0,0,1-.4537.518,1.63231,1.63231,0,0,1-.6955.0978H73.4504a.90527.90527,0,0,0-.6427.2413.78462.78462,0,0,0-.2612.5978Zm38.8459-13.5473q4.3473,0,6.4191,1.9245a6.657,6.657,0,0,1,2.0706,5.1237,7.96945,7.96945,0,0,1-.5045,2.8943,5.65814,5.65814,0,0,1-1.5486,2.2317,7.1925,7.1925,0,0,1-2.6445,1.4219,14.622,14.622,0,0,1-7.5858,0,7.19518,7.19518,0,0,1-2.6449-1.4219,5.6621,5.6621,0,0,1-1.5481-2.2317,7.96945,7.96945,0,0,1-.5045-2.8943,6.65872,6.65872,0,0,1,2.07-5.1237q2.07165-1.92585,6.4212-1.9245Zm0,11.2199a8.90529,8.90529,0,0,0,1.7216-.1616,3.64689,3.64689,0,0,0,1.4434-.6153,3.19371,3.19371,0,0,0,1.0106-1.2602,6.1068,6.1068,0,0,0,0-4.2514,3.30469,3.30469,0,0,0-1.0106-1.2933,3.50863,3.50863,0,0,0-1.4434-.6312,9.262,9.262,0,0,0-3.4452,0,3.50425,3.50425,0,0,0-1.4428.6312,3.30556,3.30556,0,0,0-1.0092,1.2933,6.08441,6.08441,0,0,0,0,4.2514,3.19437,3.19437,0,0,0,1.0092,1.2602,3.64426,3.64426,0,0,0,1.4428.6153A8.91486,8.91486,0,0,0,111.3924,47.1233Z"/></g></svg>